<svg id="Calque_1" data-name="Calque 1" xmlns="http://www.w3.org/2000/svg" viewBox="0 0 215.76 170.82"><defs><style>.cls-1{fill:#fff;}</style></defs><title>shoes</title><g id="PvgeiZ.tif"><path class="cls-1" d="M88.88,112c-4.19,3.71-8.11,6.83-11.62,10.36-7.21,7.25-11.28,16-11.21,26.36,0,3-1.12,4.29-3.63,5.55-17.94,9-36.28,8-54.88,2.63-2.34-.68-2.74-1.69-1.66-3.91,2.71-5.58,7-9.68,12-13.12,7.6-5.27,16.12-9.16,21.56-17.4,1.63-2.48,5.88-3.34,7.5-6.7.85-1.76,2.28-3.15,1.42-5.49-.73-2,.91-3.84,2.36-4.41,5.4-2.14,7.59-6.17,8.11-11.61a6.67,6.67,0,0,1,3.63-5.57c4.74-2.18,6.83-5.91,7.47-10.8a7.35,7.35,0,0,1,3.6-5.67c4.51-2.53,7.16-5.65,6.57-11.34s3.68-8.67,9.34-7.23a173.19,173.19,0,0,0,46.07,5.08c1.49,0,2.95-1.22,4.44-1.82a66.61,66.61,0,0,0,22.16-15c4.62-4.64,5.92-10.18,4.39-16.54-.65-2.67-1.88-5.78.61-8,2.83-2.52,6-.84,8.9.36,11.57,4.82,16.4,15.51,21.94,25.53,1.47,2.66-1.41,2.93-2.74,3.7-14,8.05-28,15.93-42,24-8.34,4.83-16.61,9.8-24.74,15-2.65,1.69-4.48,1.63-7-.17-6-4.25-12.2-8.07-18.17-12.31-2-1.46-2.84-1.06-4.19.85-6.53,9.27-6.59,9.22,2.53,15.37.69.47,1.39.93,2.08,1.38,9.53,6.17,7.9,5-.17,10.84-1.65,1.2-2.84,1.05-4.41-.07-3.37-2.42-7-4.57-10.3-7-1.76-1.29-2.64-1.05-4,.67-6.8,8.85-6.86,8.81,2.35,15.45C87.76,111.4,88.35,111.7,88.88,112Z" transform="translate(-2.66 -16.15)"/><path class="cls-1" d="M39.74,187A88.18,88.18,0,0,1,8.82,179.1c-3.33-1.53-5.94-3.62-6.14-7.73-.16-3.45.57-4.44,4.26-2.93,14.32,5.88,29.09,9.5,44.71,6.5,9.09-1.74,17.18-6,25.1-10.63q66.77-38.85,133.59-77.6c1.52-.88,3.39-4.71,5.81-.83,3.27,5.23,3,8.24-.92,10.64-6,3.61-12,7.07-18.06,10.58L77,177.08C66.67,183.1,55.76,187.25,39.74,187Z" transform="translate(-2.66 -16.15)"/><path class="cls-1" d="M206.43,68.76c.67,2.41-.49,2.88-1.82,3.45-19.68,8.49-39.09,17.55-57.73,28.16-1.65.94-2.73.53-4-.36-2.75-1.88-5.43-3.89-8.32-5.51-3.19-1.79-3.75-3-.11-5.06,14-8,27.85-16.23,41.78-24.35,7.32-4.28,14.72-8.41,22-12.8,2.57-1.56,3.9-1.62,4.93,1.59A80.43,80.43,0,0,1,206.43,68.76Z" transform="translate(-2.66 -16.15)"/><path class="cls-1" d="M109.11,51.19c-5.85-1.11-11.7-2.2-17.54-3.34-2.13-.41-3.15-1.2-1.92-3.72,2.24-4.59,4.17-9.35,6.08-14.09,1.24-3.07,3-3.49,5.71-1.79,7.2,4.46,10.48,11.22,11.52,19.32C113.33,50.51,111.9,51.51,109.11,51.19Z" transform="translate(-2.66 -16.15)"/><path class="cls-1" d="M83.69,137.63c.26-8.88,7.07-13.63,12.59-19.21.9-.91,1.78-.19,2.63.37,2.76,1.83,5.53,3.62,8.32,5.41,2.54,1.63,2.92,3.07.21,5.16A202.35,202.35,0,0,1,90,141.61c-1.49.92-3.18,2.88-4.76,2.08C83.05,142.59,84.12,139.83,83.69,137.63Z" transform="translate(-2.66 -16.15)"/><path class="cls-1" d="M131.49,109.61l-8.09,6.33a1.94,1.94,0,0,1-2.66.26c-3.41-2.37-6.89-4.64-10.35-6.94-.54-.36-1.2-.64-1.12-1.47.22-2.24,9.31-6.74,11.22-5.5C124.07,104.62,127.62,107,131.49,109.61Z" transform="translate(-2.66 -16.15)"/></g></svg>